# xmcd
#
# Track frame offsets:
#	150
#	11905
#	22000
#	36962
#	50955
#	60597
#	74442
#	89512
#	104877
#	121752
#	134367
#	147922
#	163437
#	178297
#
# Disc length: 2623 seconds
#
# Revision: 2
# Processed by: cddbd v1.4PL0 Copyright (c) Steve Scherf et al.
# Submitted via: audiograbber 1.82.00
#
DISCID=e00a3d0e
DTITLE=Various Artist - Hot Hits Country Vol. 17
DYEAR=1994
DGENRE=Country
TTITLE0=Mark Chesnutt - Goin' Through The Big D'
TTITLE1=Clay Walker - If I Could Make A Living
TTITLE2=Faith Hill - Take Me As I Am
TTITLE3=George Ducas - Teardrop
TTITLE4=George Strait - The Big One
TTITLE5=John Anderson - Country Till I Die
TTITLE6=Terry McBride and The Ride - High Hopes And Empty Pockets
TTITLE7=Sammy Kershaw - Third Rate Romance
TTITLE8=Tanya Tucker - You Just Watch Me
TTITLE9=Billy Dean - Men Will Be Boys
TTITLE10=David Ball - When The Thought Of You Catches Up With Me
TTITLE11=Randy Travis - This Is Me
TTITLE12=Alabama - We Can't Love Like This Anymore
TTITLE13=Vince Gill - When Love Finds You
EXTD=
EXTT0=
EXTT1=
EXTT2=
EXTT3=
EXTT4=
EXTT5=
EXTT6=
EXTT7=
EXTT8=
EXTT9=
EXTT10=
EXTT11=
EXTT12=
EXTT13=
PLAYORDER=
